<svg width="22" height="22" viewBox="0 0 22 22" fill="none" xmlns="http://www.w3.org/2000/svg"><path d="M11.3224.7387a.4764.4764 0 0 0-.1451.0251c-.8074.012-1.601.0985-2.3525.2864-.326.0794-.648.1796-.968.2966a.4761.4761 0 0 0-.2138.079c-.409.1496-.8058.3228-1.1828.5226-.6188.3214-1.1983.7205-1.7406 1.1642a.4763.4763 0 0 0-.187.1367c-.0506.0423-.1013.0846-.1506.1301A10.6165 10.6165 0 0 0 2.7074 5.268c-.1423.2046-.2727.4177-.398.6322a.4761.4761 0 0 0-.105.1972 10.2422 10.2422 0 0 0-1.1559 3.1772.4763.4763 0 0 0-.0464.2148c-.0277.1547-.0543.3105-.0716.4752-.0494.4119-.0744.829-.0744 1.2543 0 .4254.025.8425.0744 1.2544.0173.1647.0439.3205.0716.4751a.476.476 0 0 0 .0465.2139 10.2414 10.2414 0 0 0 1.1539 3.1763.4759.4759 0 0 0 .107.199c.1253.2148.2554.4284.3979.6333.4841.6986 1.0475 1.3258 1.6728 1.8866.0491.0455.1001.087.1506.1293l.001.0009a.4753.4753 0 0 0 .1887.1385h.001c.5418.4432 1.1206.8422 1.7387 1.1633.377.1998.7739.373 1.1828.5225a.4757.4757 0 0 0 .213.0791c.32.1171.6426.2172.9688.2966.7515.1879 1.5451.2745 2.3525.2864a.4767.4767 0 0 0 .305 0c.8074-.0119 1.601-.0985 2.3525-.2864.326-.0794.6481-.1797.968-.2966a.4773.4773 0 0 0 .2139-.0791c.4089-.1495.8057-.3227 1.1827-.5225.6188-.3214 1.1984-.7205 1.7407-1.1642a.4757.4757 0 0 0 .1869-.1367c.0512-.0428.1027-.085.1525-.1311.6253-.5608 1.1886-1.188 1.6728-1.8866v-.001c.1423-.2046.2727-.4177.3979-.6323a.4755.4755 0 0 0 .1051-.1971 10.2402 10.2402 0 0 0 1.1558-3.1773.476.476 0 0 0 .0465-.2148c.0277-.1546.0543-.3104.0716-.4751.0493-.4119.0744-.829.0744-1.2544 0-.4253-.0251-.8424-.0744-1.2543-.0173-.1647-.0439-.3205-.0716-.4752a.4764.4764 0 0 0-.0465-.2138 10.243 10.243 0 0 0-1.1539-3.1764.4765.4765 0 0 0-.107-.199c-.1252-.2145-.2556-.4276-.3979-.6322v-.001a10.6214 10.6214 0 0 0-1.6747-1.8876c-.0486-.0449-.0988-.0864-.1488-.1283l-.0009-.0009a.4764.4764 0 0 0-.1887-.1385h-.001c-.5418-.4432-1.1206-.8422-1.7388-1.1633-.377-.1998-.7738-.373-1.1827-.5225a.4767.4767 0 0 0-.213-.079 9.0483 9.0483 0 0 0-.9689-.2967c-.7515-.1879-1.5451-.2745-2.3525-.2864a.4762.4762 0 0 0-.1599-.0251Zm-3.5678.6379c-.0033.0011-.006.0035-.0093.0046-.0015.0006-.0031.0004-.0047.001l.014-.0056Zm7.1505 0 .0139.0055c-.0015-.0005-.0031-.0003-.0046-.0009-.0033-.0011-.006-.0035-.0093-.0046Zm-4.0514.3784v1.9034c-.4566.0289-.9144.0569-1.3454.1618h-.001c-.11.027-.2174.0678-.3263.0995L8.53 2.1335c.1735-.0534.3402-.1147.5226-.159l.0028-.001c.5719-.143 1.1847-.1873 1.7983-.2185Zm.9522 0c.6137.0313 1.2265.0756 1.7983.2185a.092.092 0 0 1 .0028.001c.1824.0443.3492.1056.5226.159l-.6509 1.7862c-.1089-.0317-.2163-.0725-.3264-.0995h-.0009c-.431-.105-.8888-.133-1.3455-.1618V1.755Zm-4.1675.7104.65 1.7881c-.1668.0728-.3367.1347-.4985.2222l-.001.001c-.2553.1344-.4832.322-.7243.4853a.4761.4761 0 0 0-.2603.1219L5.6066 3.6574c.4156-.3146.8353-.6275 1.2962-.8666a.2149.2149 0 0 0 .0038-.0019c.238-.1262.4861-.2202.7317-.3236Zm7.3829 0c.2456.1034.4937.1974.7318.3236l.0037.0019c.461.2391.8807.552 1.2962.8666l-1.1976 1.4263a.4761.4761 0 0 0-.2604-.1208c-.2412-.1635-.4688-.3518-.7243-.4863-.1622-.0878-.3323-.1502-.4994-.2232l.65-1.788ZM4.8674 4.2572l1.2283 1.4636c-.377.3596-.7389.7386-1.0377 1.1716-.0263.0378-.0464.0772-.0716.1153L3.336 6.0546c.0518-.0805.0993-.1658.1534-.2436V5.81c.3975-.5736.8718-1.0817 1.378-1.5528Zm12.9248 0c.5063.471.9806.9792 1.3781 1.5529v.0009c.0541.0778.1015.163.1534.2436l-1.6505.953c-.0252-.038-.0453-.0774-.0716-.1152l-.0018-.0019c-.2985-.4322-.6594-.8107-1.0359-1.1697l1.2283-1.4636Zm-6.9385.3534v1.8717c-.6947.0695-1.3442.2927-1.9192.6295L7.828 5.5897c.139-.0859.2598-.1949.4054-.2715a.5716.5716 0 0 0 .0047-.0028c.2417-.131.501-.2417.7653-.3403a.476.476 0 0 0 .1041-.04 5.8474 5.8474 0 0 1 .6267-.1906l-.001.0009c.3591-.0874.7412-.1075 1.1205-.1348Zm.9522 0c.3793.0273.7615.0474 1.1205.1348l-.001-.001c.221.0543.4272.117.6277.1907a.4756.4756 0 0 0 .106.0409c.2633.0984.5216.2088.7625.3394l.0046.0028c.1457.0766.2665.1856.4054.2715l-1.1065 1.5221c-.575-.3368-1.2244-.56-1.9192-.6295V4.6106ZM7.0414 6.1262l1.1242 1.5473c-.5044.4506-.9143 1.0043-1.1912 1.6309L5.166 8.7149c.1073-.2713.2252-.535.3692-.782a.4765.4765 0 0 0 .0548-.0976c.0806-.1386.1624-.2727.251-.3999l.001-.0018a6.732 6.732 0 0 1 1.0693-1.207c.0294-.0264.0462-.0403.067-.0576a.474.474 0 0 0 .0632-.0428Zm8.5769 0a.477.477 0 0 0 .0595.04c.0214.0177.0397.0326.0706.0604l.0019.0019c.4005.356.7612.7612 1.0675 1.205l.0009.002c.0888.1273.1703.2619.251.4007a.4795.4795 0 0 0 .0558.0995l.001.0009c.1421.2443.2602.507.37.7774l-1.8113.5904c-.2768-.6265-.6868-1.1803-1.1911-1.631l1.1242-1.5472Zm-12.7389.7634 1.6505.9522c-.11.222-.2321.439-.318.6713v.001c-.025.0638-.0335.1352-.0567.1999a.476.476 0 0 0-.0977.3514 6.9795 6.9795 0 0 0-.1032.3673l-1.8783-.331a9.2725 9.2725 0 0 1 .8034-2.2121Zm16.9008 0c.3574.6932.628 1.434.8034 2.212l-1.8764.3311a7.0952 7.0952 0 0 0-.1041-.3756.476.476 0 0 0-.093-.3357c-.0241-.0676-.0315-.1414-.0577-.2083-.0884-.2313-.2101-.4498-.3208-.6723l1.6486-.9512Zm-8.5062.5235a.4762.4762 0 0 0 .1153 0c.7742.0119 1.4915.251 2.0866.6565a.4768.4768 0 0 0 .1739.1302 3.798 3.798 0 0 1 1.2646 1.7397.476.476 0 0 0 .0706.2129 3.82 3.82 0 0 1 .1535 1.0665c0 .3704-.0556.7266-.1535 1.0647a.4762.4762 0 0 0-.0706.2148 3.797 3.797 0 0 1-1.2628 1.7379.4768.4768 0 0 0-.1757.132c-.5961.4061-1.3147.6453-2.0903.6565a.4732.4732 0 0 0-.1153 0c-1.6328-.0251-3.007-1.0689-3.525-2.5264a.4757.4757 0 0 0-.0707-.2129 3.8227 3.8227 0 0 1-.1534-1.0666c0-.3703.0556-.7265.1534-1.0646a.4762.4762 0 0 0 .0707-.2148c.5184-1.4586 1.8943-2.5029 3.5287-2.5264Zm6.5034 2.2102c.0322.1309.0839.254.1078.3887a.4794.4794 0 0 0 .0205.1088c.0148.0999.0297.1971.04.2892v.0037c.0312.2638.0492.5356.0492.8052 0 .2696-.0179.5415-.0492.8053v.0037c-.0103.0926-.0251.1905-.04.291a.48.48 0 0 0-.0205.106c-.024.1351-.0755.2585-.1078.3897l-1.7974-.5849a4.7505 4.7505 0 0 0 .1106-1.0108c0-.347-.0397-.6845-.1106-1.0107l1.7974-.5849Zm-12.8932.001 1.7955.5839a4.7458 4.7458 0 0 0-.1107 1.0107c0 .3471.0397.6846.1107 1.0108l-1.7955.5839c-.033-.1306-.0859-.2549-.1098-.3887a.4752.4752 0 0 0-.0204-.1078c-.0148-.0999-.0298-.1972-.04-.2892v-.0037a6.8745 6.8745 0 0 1-.0493-.8053c0-.2696.018-.5414.0493-.8052V10.41c.0103-.0926.025-.1905.04-.2911a.4748.4748 0 0 0 .0204-.105c.024-.1341.0768-.2587.1098-.3896Zm-3.0025.41 1.883.332c-.031.2782-.0522.5635-.0522.8526 0 .2892.0213.5745.0521.8527l-1.883.332c-.001-.0099-.0035-.0199-.0046-.0298a9.561 9.561 0 0 1-.0688-1.1549 9.5605 9.5605 0 0 1 .0688-1.1548c.001-.0099.0036-.0199.0047-.0298Zm18.8963 0c.0011.0099.0036.0199.0046.0298l.0009.0074c.0453.376.0679.7565.0679 1.1474 0 .391-.0226.7715-.0679 1.1475l-.0009.0074c-.001.0099-.0035.0199-.0046.0298l-1.883-.332c.0309-.2782.0521-.5635.0521-.8527 0-.2891-.0212-.5744-.0521-.8526l1.883-.332ZM3.9543 13.0052a6.971 6.971 0 0 0 .1032.3682.476.476 0 0 0 .0977.3505c.0232.0647.0318.1361.0567.2v.0009c.0858.2322.208.4493.318.6713l-1.6505.9522a9.2746 9.2746 0 0 1-.8034-2.2121l1.8783-.331Zm14.7529 0 1.8764.331a9.268 9.268 0 0 1-.8034 2.2121l-1.6486-.9512c.1107-.2225.2324-.441.3208-.6723.0263-.0672.0335-.1413.0577-.2092a.4765.4765 0 0 0 .093-.3366c.0371-.1237.0737-.2477.1041-.3738Zm-11.7328.1283c.2769.6265.6868 1.1802 1.1912 1.6309l-1.1242 1.5473a.4745.4745 0 0 0-.0595-.04c-.0215-.0177-.0398-.0326-.0707-.0604a6.7305 6.7305 0 0 1-1.0693-1.207l-.001-.0018c-.0887-.1274-.1703-.262-.251-.4008a.476.476 0 0 0-.0558-.0995v-.0009c-.143-.246-.2614-.5082-.3682-.7783l1.8085-.5895Zm8.7108 0 1.8113.5904c-.1103.2714-.2291.535-.3719.7802a.4796.4796 0 0 0-.0549.0985c-.0806.1386-.1624.2727-.251.3999l-.0009.0018a6.7319 6.7319 0 0 1-1.0675 1.2051l-.0019.0019c-.0293.0264-.0461.0403-.0669.0576-.0005.0004-.0014.0005-.0019.0009a.4842.4842 0 0 0-.0613.0419l-1.1242-1.5473c.5043-.4507.9143-1.0044 1.1911-1.6309Zm-6.7507 2.1926c.575.3368 1.2245.56 1.9192.6295v1.8717c-.3793-.0273-.7614-.0474-1.1204-.1348l.001.0009a5.8566 5.8566 0 0 1-.6277-.1906.479.479 0 0 0-.106-.0409c-.2634-.0985-.5217-.2088-.7625-.3394l-.0046-.0028c-.1457-.0766-.2666-.1856-.4055-.2715l1.1065-1.5221Zm4.7906 0 1.1065 1.5221c-.1389.0859-.2597.1949-.4054.2715l-.0046.0028c-.2417.1311-.501.2416-.7653.3403a.4726.4726 0 0 0-.1041.04 5.8437 5.8437 0 0 1-.6268.1906l.001-.0009c-.359.0874-.7412.1075-1.1205.1348v-1.8717c.6948-.0695 1.3442-.2927 1.9192-.6295Zm-8.7387.1041c.0257.0388.0467.0787.0735.1172.2984.4321.6594.8107 1.0358 1.1697l-1.2283 1.4636c-.5074-.4749-.9814-.9805-1.378-1.5529v-.0009c-.0541-.0778-.1016-.1631-.1534-.2436l1.6504-.9531Zm12.6868 0 1.6505.9531c-.0519.0805-.0993.1658-.1534.2436v.0009c-.3966.5724-.8707 1.078-1.3781 1.5529l-1.2283-1.4636c.3765-.359.7374-.7376 1.0359-1.1697l.0018-.0019c.0263-.0378.0464-.0773.0716-.1153ZM6.8042 17.354a.4758.4758 0 0 0 .2604.1218c.2411.1634.469.3509.7244.4854l.001.001c.1617.0875.3316.1494.4983.2222l-.65 1.7881c-.2456-.1034-.4937-.1974-.7317-.3236l-.0038-.0019c-.461-.2391-.8806-.552-1.2962-.8666l1.1977-1.4264Zm9.0512.001 1.1976 1.4254c-.4155.3146-.8352.6275-1.2962.8666l-.0037.0019c-.2381.1262-.4862.2202-.7318.3236l-.65-1.7881c.1668-.0728.3366-.1347.4984-.2222l.001-.001c.2554-.1345.4832-.322.7243-.4854a.4758.4758 0 0 0 .2604-.1208ZM9.181 18.5182c.1089.0317.2163.0725.3263.0995h.001c.431.1049.8888.1329 1.3454.1618v1.9034c-.6136-.0313-1.2264-.0756-1.7983-.2185l-.0028-.001c-.1824-.0443-.3491-.1056-.5225-.159l.6509-1.7862Zm4.2977 0 .6509 1.7862c-.1734.0534-.3402.1147-.5226.159a.0486.0486 0 0 0-.0028.001c-.5718.1429-1.1846.1872-1.7983.2185v-1.9034c.4567-.0289.9145-.0569 1.3455-.1618h.0009c.1101-.027.2175-.0678.3264-.0995Zm-5.738 2.5375c.0014.0006.003.0004.0046.001.0033.0011.006.0034.0093.0046l-.014-.0056Zm7.1783 0-.0139.0056c.0033-.0011.006-.0034.0093-.0046.0014-.0006.0031-.0004.0046-.001Z" fill="#FEFAFA"/></svg>